<svg width="197" height="199" viewBox="0 0 197 199" fill="none" xmlns="http://www.w3.org/2000/svg">
<path d="M194.03 97.493C194.03 150.006 151.46 192.577 98.9466 192.577C46.4334 192.577 3.86304 150.006 3.86304 97.493C3.86304 44.9798 46.4334 2.40942 98.9466 2.40942C151.46 2.40942 194.03 44.9798 194.03 97.493ZM29.9617 97.493C29.9617 135.592 60.8473 166.478 98.9466 166.478C137.046 166.478 167.932 135.592 167.932 97.493C167.932 59.3937 137.046 28.5081 98.9466 28.5081C60.8473 28.5081 29.9617 59.3937 29.9617 97.493Z" fill="#CC961C"/>
<circle cx="98.2066" cy="99.3428" r="71.7752" fill="#91978F"/>
<path d="M48.6299 181.292C60.6805 187.886 75.1872 193.705 88.8862 194.719C102.585 195.733 116.343 193.801 129.233 189.054C142.122 184.306 153.846 176.853 163.615 167.196C173.384 157.538 180.971 145.901 185.866 133.066C190.76 120.231 192.85 106.497 191.993 92.7874C191.136 79.0777 187.353 65.7105 180.898 53.5852C174.443 41.4598 165.466 30.8576 154.571 22.4917C143.676 14.1259 134.526 9.95468 121.145 6.84912L113.191 25.5329C123.696 27.9712 133.43 32.3156 141.984 38.884C150.538 45.4525 157.587 53.7768 162.655 63.297C167.723 72.8172 170.693 83.3125 171.366 94.0766C172.039 104.841 170.398 115.624 166.555 125.701C162.712 135.779 156.755 144.916 149.085 152.498C141.415 160.081 132.21 165.933 122.09 169.66C111.969 173.388 101.168 174.904 90.4118 174.108C79.656 173.312 75.8502 172.965 66.3887 167.788L48.6299 181.292Z" fill="#B67C01"/>
<path d="M131.757 5.37502C144.889 10.035 156.278 17.3553 166.095 26.8882C176.186 36.6871 183.889 48.2544 189.118 61.3961C194.294 74.407 196.456 87.9461 196.127 101.886C195.687 120.554 190.607 137.871 180.223 153.453C167.436 172.64 150.28 186.302 128.264 193.58C118.849 196.692 109.16 198.59 99.2443 198.482C74.7703 198.217 52.9752 190.62 34.3379 174.384C19.4604 161.423 9.14951 145.606 3.92267 126.608C0.853283 115.452 -0.731867 104.032 0.329076 92.4258C1.67035 77.7526 5.38858 63.7541 12.3455 50.6442C17.9205 40.1383 25.4434 31.2877 34.3091 23.4984C44.1168 14.8814 55.2828 8.61064 67.7014 4.61949C78.5832 1.1222 89.7064 -0.255213 101.189 0.0383917C111.663 0.306202 121.747 2.0023 131.757 5.37502ZM121.398 166.623C139.497 160.187 152.549 147.946 161.258 131.109C167.454 119.131 169.546 106.156 168.208 92.7512C166.591 76.5548 160.548 62.0628 149.167 50.4084C128.485 29.228 103.496 23.5383 75.4231 32.1653C57.9901 37.5225 45.0487 48.9024 36.1341 64.7181C29.3525 76.7495 26.376 89.7043 27.412 103.592C28.0271 111.838 29.6392 119.827 32.8156 127.413C36.5143 136.246 41.9134 143.961 48.8024 150.711C61.1766 162.836 76.0508 169.361 93.1581 170.645C102.679 171.36 112.091 170.081 121.398 166.623ZM185.716 132.962C186.295 131.407 186.999 129.885 187.43 128.29C189.116 122.056 190.629 115.804 191.352 109.342C192.056 103.059 192.371 96.7595 191.802 90.5245C190.458 75.7825 186.085 61.8657 178.315 49.2419C165.351 28.1777 147.257 13.6671 123.068 7.2617C121.772 6.91869 121.171 7.25163 120.679 8.45054C119.158 12.1546 117.527 15.8128 115.974 19.5039C115.193 21.3615 114.49 23.2519 113.763 25.0963C114.024 25.3175 114.145 25.4893 114.305 25.5423C114.83 25.716 115.364 25.8642 115.903 25.9911C125.884 28.3452 134.943 32.6995 143.095 38.8617C149.075 43.382 154.089 48.8308 158.428 55.0036C162.724 61.1134 166.128 67.6179 168.577 74.6149C172.677 86.3294 173.778 98.4006 172.052 110.674C170.129 124.345 164.74 136.584 156.005 147.262C148.53 156.4 139.618 163.754 128.642 168.441C114.425 174.512 99.785 176.908 84.4345 174.026C79.3224 173.066 74.4288 171.447 69.5603 169.697C68.5093 169.319 67.5683 169.031 66.434 169.772C62.5138 172.33 58.5068 174.756 54.5407 177.245C53.0523 178.178 51.5598 179.113 50.2544 180.31C50.7581 181.154 51.5538 181.415 52.2328 181.799C63.193 188.005 74.8907 191.927 87.4301 193.414C95.2581 194.342 103.056 194.241 110.831 193.199C122.701 191.609 133.783 187.641 144.135 181.636C163.606 170.342 177.616 154.361 185.716 132.962ZM42.5928 22.905C42.6035 22.8446 42.6344 22.7783 42.6191 22.7254C42.6045 22.6753 42.5156 22.5959 42.5035 22.6031C41.9815 22.9158 41.4283 23.1905 40.9522 23.5635C32.0395 30.5471 24.4435 38.7538 18.6027 48.4578C9.7954 63.0902 5.25906 79.0742 4.24123 96.0737C4.10419 98.3625 4.41951 100.678 4.52907 103.062C5.5806 102.76 5.68833 102.016 5.95874 101.438C10.315 92.1257 14.6522 82.8048 18.9981 73.488C26.8355 56.6864 34.6758 39.8862 42.5928 22.905ZM87.3034 7.09813C84.6456 13.3284 81.9877 19.5586 79.3064 25.844C79.7651 25.9501 79.8932 26.0237 79.9953 25.9971C86.5308 24.2964 93.1875 23.7083 99.9173 23.8937C101.182 23.9286 101.826 23.3796 102.307 22.3155C104.688 17.048 107.102 11.7959 109.495 6.53364C109.742 5.98912 110.082 5.43486 109.744 4.78408C109.577 4.70173 109.42 4.56888 109.249 4.54802C103.119 3.79891 96.9704 3.96488 90.8179 4.15594C88.9453 4.21409 87.8415 5.04529 87.3034 7.09813ZM31.478 64.1888C33.8984 59.8483 36.498 55.6436 38.4108 50.9885C42.6925 40.5681 47.436 30.338 51.9395 20.0077C52.5741 18.5521 53.3472 17.1036 53.5707 15.2063C51.929 16.3907 50.0492 16.7128 49.1865 18.5347C44.8106 27.7758 40.3229 36.9646 36.0162 46.2376C29.0623 61.2101 22.2256 76.2371 15.3264 91.2351C12.1863 98.0611 9.01964 104.875 5.85498 111.689C4.93108 113.679 5.5636 115.489 6.4723 117.383C14.6293 99.6142 23.2434 82.1423 31.478 64.1888ZM53.8052 25.7643C51.0527 32.0077 48.3003 38.2511 45.5479 44.4946C45.6884 44.5756 45.829 44.6566 45.9695 44.7376C48.2704 42.8289 50.5799 40.9304 52.8606 38.9977C53.1231 38.7753 53.2463 38.3726 53.3976 38.037C57.2448 29.5016 61.0898 20.9651 64.9246 12.4241C65.1903 11.8324 65.6445 11.2247 64.8945 10.3128C62.5101 11.4746 59.6572 11.6886 58.51 15.0252C57.2735 18.6214 55.4747 22.0243 53.8052 25.7643ZM13.0916 113.426C11.5428 116.845 10.047 120.289 8.42614 123.674C7.38565 125.846 8.66913 127.442 9.25811 129.292C10.2599 128.939 10.4069 128.237 10.7115 127.649C14.3099 120.705 16.7643 113.22 20.4258 106.34C22.8524 101.78 23.2832 97.1245 23.2179 92.1692C19.4331 98.9562 16.5312 106.167 13.0916 113.426ZM16.6781 124.41C15.1422 127.832 13.5658 131.237 12.0871 134.683C11.3236 136.463 11.8287 137.778 13.5259 139.032C14.0976 138.783 14.2196 138.211 14.4585 137.721C17.8855 130.703 21.1341 123.6 24.195 116.416C25.0363 114.441 24.0115 112.543 23.3693 110.611C20.6966 114.939 18.899 119.624 16.6781 124.41ZM68.0352 23.7635C70.3461 18.3218 72.6571 12.88 75.0816 7.1708C70.277 8.35484 71.2193 7.47487 69.2945 11.9919C67.1947 16.9199 65.162 21.8761 62.9278 26.7463C61.8594 29.0752 60.7813 31.3996 59.7076 33.7261C62.2446 32.8404 64.7195 32.1471 65.6055 29.2405C66.157 27.4314 67.1255 25.7495 68.0352 23.7635ZM20.7365 142.961C23.0152 137.99 25.3051 133.023 27.5648 128.043C28.1441 126.766 27.4073 124.517 26.0846 123.297C25.2889 123.57 25.0931 124.317 24.7891 124.975C22.1051 130.779 19.4193 136.582 16.743 142.39C15.6917 144.671 15.9813 145.998 18.0492 148.029C19.3 146.613 19.7422 144.787 20.7365 142.961ZM30.254 158.402C31.2598 156.219 32.2837 154.044 33.2668 151.851C34.4005 149.321 35.5184 146.784 36.6033 144.234C37.2025 142.825 36.1478 142.033 35.2739 141.307C34.5808 140.732 34.1417 141.399 33.8725 141.961C31.3218 147.296 28.7693 152.629 26.2705 157.988C25.6928 159.227 26.605 161.229 27.8827 161.532C29.3441 161.878 29.1621 160.359 29.704 159.671C29.9244 159.391 30.0033 158.999 30.254 158.402ZM82.6318 8.04978C82.9882 7.27968 83.3658 6.51487 83.2835 5.62497C80.4457 5.55194 80.4111 5.53636 79.3331 7.93108C77.2616 12.5327 75.207 17.1424 73.1989 21.7719C72.2285 24.009 71.3794 26.2987 70.3944 28.7676C72.3792 28.5036 73.7583 27.9741 74.5397 26.1774C77.1414 20.1945 79.8471 14.2568 82.6318 8.04978ZM26.2724 140.309C24.5557 143.982 22.8982 147.684 21.0953 151.314C20.293 152.929 21.1554 153.937 22.2628 154.507C23.4824 155.134 23.6714 153.683 24.0198 152.961C26.1856 148.478 28.2938 143.967 30.4009 139.456C30.8946 138.399 31.4016 137.333 31.7378 136.222C32.1104 134.99 31.3785 133.931 30.4222 133.485C29.4329 133.024 29.2167 134.265 28.8813 134.913C28.005 136.604 27.2113 138.338 26.2724 140.309ZM45.6163 161.184C46.0634 160.241 46.5091 159.298 46.9577 158.355C48.087 155.984 47.8315 155.281 45.1603 153.969C45.0867 154.106 44.9609 154.319 44.8539 154.542C42.4057 159.629 39.9323 164.704 37.5304 169.812C36.8538 171.252 38.1909 171.797 39.0627 172.321C40.156 172.979 40.4057 171.826 40.7239 171.19C42.345 167.953 43.9092 164.688 45.6163 161.184ZM32.9382 166.939C34.0404 167.9 34.43 166.995 34.8153 166.197C35.8584 164.036 36.8963 161.872 37.9007 159.693C39.2141 156.844 40.4957 153.98 41.7864 151.12C42.4607 149.626 41.2908 148.845 40.3759 148.32C39.3179 147.714 39.1638 148.949 38.8488 149.608C36.6198 154.271 34.4664 158.972 32.1551 163.593C31.4739 164.955 31.5595 165.889 32.9382 166.939ZM51.4984 165.595C52.0271 164.484 52.5024 163.343 53.0981 162.269C53.81 160.985 53.0941 160.295 52.1337 159.727C50.9936 159.052 50.5707 160.016 50.1954 160.757C48.14 164.819 46.1094 168.894 44.1046 172.982C42.6242 176 42.6889 176.113 46.1292 177.553C47.8783 173.658 49.6317 169.754 51.4984 165.595ZM109.162 17.8523C108.363 19.8772 107.221 21.7748 106.723 23.8902C108.46 24.7944 109.415 24.4094 110.107 22.6977C112.13 17.6883 114.298 12.7373 116.367 7.74606C116.617 7.14294 117.247 6.35523 116.245 5.81651C115.192 5.25048 114.867 6.11537 114.452 6.80634C112.388 10.2417 111.122 14.0596 109.162 17.8523ZM54.9296 167.847C54.0839 169.953 52.8997 171.932 52.4866 174.285C56.0302 172.345 59.4069 170.277 62.7403 168.142C63.3578 167.746 63.3085 167.047 62.7125 166.582C62.1852 166.17 61.5893 165.836 60.9956 165.521C56.5786 163.176 57.4119 162.572 54.9296 167.847Z" fill="black"/>
<path d="M56.6981 95.4742C62.3659 80.9547 67.9841 66.5647 73.576 52.1645C74.4859 49.8214 74.4298 49.8157 71.9718 49.4443C70.6386 49.2428 69.2682 49.2651 67.9916 48.7091C66.1822 47.921 65.2283 46.3548 65.5577 44.4223C66.1731 40.8117 67.8147 38.3259 71.7558 37.336C81.029 35.0067 90.286 32.7696 99.9265 32.7637C101.357 32.7628 102.741 32.8802 104.105 33.3575C106.525 34.2044 107.533 35.896 106.732 38.381C105.941 40.8381 104.934 43.2281 103.972 45.6278C97.4208 61.9757 90.8561 78.3183 84.2984 94.6637C84.1611 95.006 84.108 95.3903 83.9295 95.7064C82.9905 97.3689 83.6345 98.1883 85.2778 98.873C88.4116 100.179 89.673 102.593 89.159 105.795C88.7159 108.555 86.9502 110.254 84.1329 110.267C72.918 110.317 61.7028 110.303 50.4878 110.267C48.3924 110.26 46.5356 108.8 45.8476 106.878C45.1475 104.923 45.8162 102.52 47.4987 100.996C49.0932 99.5522 51.0679 98.8615 53.0464 98.145C54.4545 97.635 56.1275 97.4109 56.6981 95.4742ZM64.7354 86.9832C63.8797 89.1608 62.7867 91.2784 62.2169 93.5284C60.9712 98.4467 57.9956 101.422 53.1344 102.737C51.9405 103.06 49.9433 103.317 50.2458 104.946C50.5094 106.366 52.4063 105.962 53.6343 105.967C63.0608 106.005 72.4875 105.992 81.9142 105.986C82.4651 105.985 83.0271 105.959 83.5637 105.848C84.1511 105.725 84.833 105.628 84.9443 104.842C85.0426 104.149 84.6792 103.607 84.1378 103.29C83.079 102.668 81.9379 102.188 80.8779 101.568C78.5037 100.182 77.9741 98.6988 78.9827 96.1666C82.4672 87.4173 85.9491 78.6667 89.4857 69.9383C93.0914 61.0389 96.7806 52.1733 100.386 43.2737C101.138 41.4153 102.054 39.5977 102.47 37.6151C100.772 37.0803 99.7832 37.0752 98.1692 37.1192C90.0397 37.3409 82.2213 39.2763 74.4208 41.33C73.4092 41.5963 72.3889 41.8324 71.3865 42.1291C70.385 42.4256 70.0865 43.2914 70.146 44.1663C70.2116 45.1318 71.1213 44.882 71.7526 44.9673C73.7016 45.2304 75.6665 45.4062 77.5973 45.7656C79.7528 46.1669 80.1623 46.9596 79.4251 48.9952C78.7335 50.9047 78.0026 52.8002 77.2677 54.6935C73.1247 65.3671 68.9752 76.0382 64.7354 86.9832Z" fill="black"/>
<path d="M48.1943 114.164C53.756 113.671 59.1807 113.582 64.5708 114.241C67.6917 114.622 70.4485 117.649 71.0065 121.1C71.6144 124.86 70.7587 128.213 67.5586 130.65C67.1196 130.985 66.6342 131.264 66.1501 131.532C65.2263 132.045 65.1727 132.671 65.7825 133.487C67.1102 135.265 68.4168 137.058 69.7123 138.859C70.1424 139.457 70.6326 140.093 70.2252 140.886C69.8005 141.714 69.016 141.845 68.1685 141.821C67.4301 141.8 66.6849 141.764 65.9527 141.837C64.3623 141.994 63.3064 141.386 62.4559 139.999C61.2022 137.955 59.7771 136.012 58.3634 134.07C57.4717 132.846 54.6722 132.453 53.4826 133.263C52.9188 133.648 52.9572 134.208 52.9565 134.748C52.9544 136.227 52.991 137.706 53.0081 139.186C53.036 141.594 52.6292 142.027 50.2909 142.087C50.1061 142.092 49.9211 142.091 49.7362 142.094C46.8866 142.126 46.5192 141.778 46.5084 138.955C46.48 131.497 46.4779 124.039 46.421 116.58C46.4115 115.337 46.9465 114.612 48.1943 114.164ZM64.5662 125.333C65.9228 122.026 64.7801 119.878 61.2332 119.473C58.9333 119.211 56.5933 119.28 54.2706 119.245C53.1628 119.228 52.595 119.768 52.6352 120.958C52.6934 122.675 52.6783 124.396 52.6578 126.115C52.6458 127.117 53.099 127.597 54.0914 127.587C56.4232 127.562 58.757 127.586 61.0862 127.495C62.4918 127.439 63.7258 126.921 64.5662 125.333Z" fill="black"/>
<path d="M81.6801 133.631C81.5321 136.184 81.6804 136.353 84.0153 136.386C86.6637 136.423 89.3162 136.372 91.9594 136.506C94.1763 136.619 94.5308 137.169 94.4614 139.657C94.4109 141.468 93.7934 142.051 91.7459 142.063C87.2483 142.088 82.7504 142.087 78.2527 142.073C76.122 142.067 75.4016 141.444 75.3824 139.366C75.3426 135.066 74.9681 130.777 75.2645 126.461C75.4617 123.589 75.1478 120.684 75.0927 117.794C75.0318 114.6 75.5182 114.099 78.6168 114.1C82.9274 114.101 87.2379 114.114 91.5485 114.119C92.6063 114.121 93.8017 114.019 94.228 115.244C94.6543 116.469 94.6678 117.804 94.1542 119.033C93.8884 119.669 93.2172 119.681 92.5591 119.686C89.544 119.705 86.5264 119.879 83.5152 119.796C81.3632 119.737 81.5307 121.044 81.5377 122.463C81.5447 123.897 81.6671 125.023 83.6021 124.911C85.7515 124.787 87.9148 124.837 90.0698 124.895C91.9333 124.946 92.5778 125.769 92.6218 127.765C92.6588 129.439 91.9648 130.289 90.2281 130.298C88.3857 130.307 86.5441 130.427 84.7017 130.487C81.867 130.58 81.8669 130.576 81.6801 133.631Z" fill="black"/>
<path d="M105.576 121.051C106.311 119.404 107.023 117.901 107.666 116.369C108.402 114.616 109.838 114.498 111.474 114.445C113.048 114.395 114.076 114.92 114.67 116.362C116.802 121.543 118.936 126.723 121.081 131.899C122.166 134.515 123.243 137.136 124.385 139.727C125.002 141.126 124.497 141.678 123.109 141.769C122.435 141.813 121.765 141.924 121.091 141.975C119.45 142.101 118.302 141.596 117.679 139.871C116.481 136.551 116.407 136.574 112.803 136.555C110.955 136.546 109.105 136.591 107.257 136.537C106.18 136.505 105.475 136.872 105.185 137.938C105.137 138.115 105.057 138.284 104.988 138.455C103.671 141.734 101.967 142.579 98.4515 141.712C97.0702 141.371 97.3353 140.444 97.7091 139.545C99.0108 136.418 100.343 133.303 101.67 130.187C102.95 127.183 104.238 124.183 105.576 121.051ZM109.94 125.923C109.303 127.545 108.365 129.075 108.222 130.814C109.098 131.316 109.854 131.145 110.577 131.155C114.867 131.217 114.9 131.195 113.322 127.277C112.775 125.917 112.471 124.391 111.367 123.24C110.467 123.984 110.408 124.905 109.94 125.923Z" fill="black"/>
<path d="M134.174 122.341C134.124 126.571 134.107 130.639 134.038 134.705C134.018 135.9 134.526 136.367 135.692 136.354C138.096 136.327 140.502 136.3 142.904 136.385C145.221 136.467 145.102 136.606 145.474 139.889C145.678 141.693 144.369 142.054 142.966 142.063C138.59 142.092 134.213 142.061 129.836 142.072C128.191 142.076 127.534 141.256 127.542 139.654C127.577 132.195 127.572 124.736 127.587 117.277C127.59 116.153 127.564 114.89 128.857 114.471C130.328 113.994 131.911 113.883 133.344 114.641C134.066 115.022 134.041 115.885 134.057 116.635C134.098 118.483 134.143 120.33 134.174 122.341Z" fill="black"/>
<path d="M136.101 82.6743C136.211 81.5428 136.181 80.5141 136.494 79.6033C137.169 77.6376 136.412 76.3116 134.953 75.0988C134.156 74.4353 133.405 73.6634 132.813 72.8154C131.685 71.2024 132.181 69.8565 134.06 69.2543C134.635 69.0701 135.27 69.0654 135.88 69.0028C138.614 68.7222 139.843 67.6552 140.448 65.0373C140.572 64.4993 140.687 63.9525 140.882 63.4387C141.206 62.585 141.759 61.9287 142.749 61.8801C143.765 61.8302 144.544 62.2663 144.989 63.2021C145.333 63.925 145.75 64.6369 145.946 65.402C146.515 67.6261 148.031 68.6236 150.172 68.9381C150.839 69.036 151.521 69.1424 152.147 69.3773C153.801 69.9984 154.189 71.2265 153.276 72.7603C153.15 72.9712 153.026 73.201 152.845 73.3585C150.396 75.4989 149.406 77.9904 150.612 81.2243C150.971 82.1868 150.713 83.3387 149.673 84.0097C148.69 84.6438 147.784 84.1042 147.145 83.5109C144.389 80.9551 141.893 81.4156 139.236 83.7377C137.838 84.9596 137.087 84.6071 136.101 82.6743ZM145.63 77.5674C146.291 75.9552 146.069 73.9826 148.197 72.6586C146.061 72.2205 144.726 71.4366 143.777 70.0566C143.437 69.5628 142.854 69.548 142.54 70.0683C141.673 71.5031 140.294 72.1867 138.345 72.681C140.321 74.0047 140.989 75.571 140.553 78.1359C142.381 76.6141 143.886 76.7078 145.63 77.5674Z" fill="black"/>
<path d="M141.15 111.453C139.629 110.758 139.456 109.628 139.862 108.312C140.044 107.726 140.271 107.144 140.556 106.602C141.423 104.958 141.169 103.57 139.801 102.297C138.997 101.549 138.185 100.774 137.774 99.6944C137.002 97.6662 137.794 96.4433 139.95 96.3723C140.135 96.3662 140.324 96.3433 140.504 96.3733C143.545 96.8803 145.745 95.9132 147.021 92.947C147.449 91.951 148.295 91.0558 149.618 91.2308C151.058 91.4211 151.505 92.5543 151.632 93.7543C151.937 96.6124 153.236 98.3992 156.264 98.7919C157.333 98.9306 158.493 99.4348 158.756 100.704C159.028 102.013 158.185 102.897 157.267 103.677C156.985 103.916 156.71 104.184 156.387 104.349C154.287 105.422 153.622 107.156 153.952 109.404C154.031 109.946 153.996 110.513 153.95 111.064C153.863 112.11 153.443 112.97 152.411 113.398C151.404 113.816 150.805 113.077 150.142 112.552C149.853 112.323 149.575 112.076 149.32 111.809C147.634 110.037 145.78 109.572 143.572 110.899C142.907 111.299 142.124 111.604 141.15 111.453ZM146.611 99.923C145.814 100.554 144.673 99.9844 143.686 100.734C145.139 102.104 145.669 103.713 144.907 106.021C146.949 105.138 148.457 105.623 150.133 106.746C149.75 104.41 151.029 103.279 152.432 101.919C150.573 101.227 149.37 100.072 148.672 98.5651C147.707 98.7032 147.399 99.4075 146.611 99.923Z" fill="black"/>
<path d="M117.847 49.728C119.496 49.1623 119.642 47.6743 120.243 46.4944C120.722 45.5528 120.879 44.2353 122.385 44.3152C123.897 44.3954 124.494 45.4772 124.784 46.7395C125.278 48.8953 126.571 50.0415 128.717 50.625C131.182 51.2952 131.613 52.7035 129.93 54.5088C128.536 56.0041 127.919 57.5383 128.46 59.5163C128.523 59.748 128.515 60.0098 128.491 60.2528C128.398 61.1933 128.868 62.3208 127.827 62.9722C126.773 63.6319 125.885 62.8377 125.14 62.305C123.266 60.9648 121.59 60.9099 119.875 62.5534C119.361 63.0456 118.669 63.4891 117.864 63.036C117.003 62.551 116.614 61.6984 116.859 60.8358C117.663 58.0107 116.788 55.8899 114.693 53.9107C113.329 52.6222 113.846 51.189 115.61 50.4698C116.293 50.1915 117.009 49.9943 117.847 49.728ZM123.492 52.7794C123.071 52.4689 122.949 51.7811 122.076 51.7964C121.877 52.7564 120.704 52.7283 120.063 53.5134C120.762 54.4023 121.149 55.4012 121.327 56.7563C122.287 55.9002 123.081 56.635 124.094 56.6398C123.885 55.4663 124.625 54.65 125.05 53.6716C124.531 53.3908 124.106 53.1607 123.492 52.7794Z" fill="black"/>
</svg>
